<svg width="820" height="174" viewBox="0 0 820 174" fill="none" xmlns="http://www.w3.org/2000/svg">
<path d="M66.016 16.44C74.848 25.016 79.968 37.304 79.968 50.232C79.968 64.184 74.336 75.192 63.328 83.256C49.376 93.624 33.76 99.128 17.12 99.896C13.408 100.152 9.056 99 5.472 96.952C3.168 95.672 1.632 93.624 0.992003 91.192C0.224003 88.248 0.864002 84.92 2.656 81.848C4.192 79.288 5.216 76.216 5.216 73.528C5.472 62.648 5.6 51.896 5.856 41.144C5.856 33.72 5.984 26.296 6.112 19C6.368 11.192 7.648 9.272 14.816 6.968C18.656 5.816 22.752 4.92 26.72 4.024C28.128 3.768 29.408 3.512 30.816 3.256L31.072 4.024L32.224 3.896C45.152 3.512 57.184 7.864 66.016 16.44ZM47.328 63.672C53.216 59.96 56.672 53.432 56.672 46.136C56.544 38.712 52.832 32.056 46.688 28.344C41.312 25.016 35.296 24.376 29.408 23.608C28.256 23.48 26.976 23.352 25.824 23.224L24.16 22.968L26.464 74.424L28.384 73.528C30.56 72.376 32.736 71.352 34.784 70.328C39.264 68.152 43.36 66.104 47.328 63.672ZM115.211 24.76C116.491 42.936 114.443 61.24 112.523 78.904L111.627 86.456C111.499 88.248 110.731 90.168 109.579 92.216C107.787 95.544 104.715 97.464 101.515 97.464C101.515 97.464 101.515 97.464 101.387 97.464C98.443 97.464 95.627 95.672 93.963 92.728C91.915 88.888 90.507 84.024 90.251 79.16C89.867 72.504 89.995 65.592 89.995 59.064C90.123 56.248 90.123 53.432 90.123 50.616V49.208H89.611C89.611 47.16 89.739 44.984 89.867 42.936C90.123 36.536 90.379 30.136 90.891 23.736C91.275 19.768 92.043 15.928 93.195 12.472C94.731 7.864 98.827 5.048 103.435 5.304C108.299 5.432 111.627 8.12 113.035 12.728C114.187 16.184 114.955 20.152 115.211 24.76ZM216.497 9.144C217.009 11.704 217.265 14.392 217.137 17.208L217.009 27.704C216.625 43.96 216.369 60.728 215.729 77.24C215.345 85.944 212.657 92.088 207.921 94.776C203.185 97.336 196.785 96.44 189.361 92.216C181.681 87.864 175.153 80.824 170.929 75.832C165.937 70.072 161.329 63.544 156.977 57.272C155.057 54.712 153.265 52.024 151.473 49.464L150.833 48.696C149.937 47.288 148.785 45.752 146.993 44.344L144.689 42.68V46.904C144.689 47.8 144.817 48.824 144.689 49.72L144.433 58.168C144.049 68.664 143.665 79.544 143.153 90.296C143.153 92.088 142.513 94.264 141.617 96.184C140.337 98.616 138.417 100.152 136.241 100.28C134.193 100.408 132.017 99.128 130.609 96.824C129.329 94.776 128.561 92.6 128.305 90.68C125.105 64.056 124.465 42.04 126.257 21.432C126.385 19.64 126.897 17.72 127.665 15.672C129.073 12.344 131.505 9.912 134.577 8.888C135.729 8.504 136.881 8.248 138.033 8.248C139.953 8.248 142.001 8.888 143.793 9.912C146.481 11.448 148.913 13.496 150.705 15.928C155.057 21.304 159.281 26.936 163.377 32.44C165.809 35.512 168.113 38.712 170.417 41.784C174.513 47.16 178.609 52.408 182.833 57.784L189.105 65.976L192.433 64.696L192.561 62.392C192.561 61.368 192.689 60.344 192.689 59.32C192.817 55.352 192.945 51.384 193.073 47.416C193.329 37.688 193.585 27.704 194.097 17.848C194.225 14.264 195.121 10.424 196.529 6.84C198.321 2.36 202.673 -0.328002 207.537 0.311998C212.017 0.823998 215.473 4.28 216.497 9.144ZM276.525 5.304C299.565 10.808 315.309 20.28 316.973 49.208C315.949 60.856 312.749 69.432 306.989 76.344C304.941 78.776 302.765 81.336 300.717 83.768L298.157 86.584C289.965 96.312 279.469 100.152 266.157 98.616C264.237 98.36 262.317 97.976 260.397 97.592L260.013 97.464C247.981 95.032 238.509 88.376 232.749 78.392C226.349 67.128 224.941 51.896 229.165 39.736C236.205 19.384 249.261 8.248 269.101 5.688L270.381 5.56C271.789 5.304 273.197 5.176 274.477 5.176C275.245 5.176 275.885 5.176 276.525 5.304ZM293.677 51.256L293.805 50.872V50.488C292.781 41.272 289.453 36.792 281.389 33.464C277.677 32.056 274.733 30.648 271.917 29.24C264.493 25.4 259.501 26.552 255.021 33.336C247.981 43.832 246.317 53.304 249.901 63.288C252.333 69.816 257.837 74.552 264.621 75.832C265.901 76.088 267.053 76.216 268.333 76.216C273.581 76.216 278.445 74.04 282.029 70.2C282.541 69.56 283.181 68.92 283.821 68.28C285.229 66.744 286.765 65.208 287.917 63.288C289.581 60.472 290.861 57.656 292.141 54.84C292.653 53.56 293.165 52.408 293.677 51.256Z" fill="#FF7828"/>
<path d="M378.999 62.408C378.316 63.347 377.335 63.816 376.055 63.816C374.86 63.816 373.964 63.389 373.367 62.536C372.684 61.597 372.343 60.787 372.343 60.104C372.343 59.251 372.642 58.355 373.239 57.416C374.775 55.197 376.567 52.765 378.615 50.12C380.748 47.389 383.01 44.872 385.399 42.568C387.788 40.264 390.22 38.344 392.695 36.808C395.17 35.272 397.602 34.504 399.991 34.504C402.039 34.504 403.788 35.187 405.239 36.552C406.69 37.832 407.842 39.624 408.695 41.928C409.548 44.147 410.06 46.749 410.231 49.736C410.487 52.723 410.402 55.88 409.975 59.208C410.914 57.672 411.98 55.709 413.175 53.32C414.37 50.845 415.692 48.499 417.143 46.28C418.594 43.976 420.13 42.013 421.751 40.392C423.458 38.771 425.207 37.96 426.999 37.96C428.108 37.96 429.09 38.515 429.943 39.624C430.796 40.648 431.522 41.971 432.119 43.592C432.716 45.128 433.186 46.835 433.527 48.712C433.954 50.504 434.295 52.211 434.551 53.832C434.807 55.368 434.978 56.691 435.063 57.8C435.148 58.909 435.191 59.464 435.191 59.464C436.727 56.733 438.391 53.619 440.183 50.12C441.975 46.536 443.852 43.165 445.815 40.008C447.778 36.851 449.826 34.205 451.959 32.072C454.092 29.853 456.268 28.744 458.487 28.744C458.999 28.744 459.596 28.915 460.279 29.256C461.047 29.512 461.644 30.237 462.071 31.432C462.583 32.883 463.095 34.803 463.607 37.192C464.204 39.496 464.802 41.971 465.399 44.616C465.996 47.261 466.594 49.907 467.191 52.552C467.788 55.197 468.386 57.587 468.983 59.72C469.58 61.853 470.178 63.603 470.775 64.968C471.372 66.333 471.97 67.016 472.567 67.016C473.676 67.016 474.999 66.12 476.535 64.328C478.071 62.451 479.692 60.275 481.399 57.8C482.167 56.776 483.191 56.264 484.471 56.264C485.58 56.264 486.434 56.648 487.031 57.416C487.714 58.184 488.055 59.037 488.055 59.976C488.055 60.915 487.799 61.811 487.287 62.664C484.898 66.248 482.466 69.192 479.991 71.496C477.602 73.715 474.786 74.824 471.543 74.824C469.495 74.824 467.746 73.971 466.295 72.264C464.93 70.557 463.778 68.424 462.839 65.864C461.9 63.304 461.09 60.573 460.407 57.672C459.81 54.685 459.255 51.912 458.743 49.352C458.231 46.792 457.762 44.659 457.335 42.952C456.908 41.245 456.439 40.392 455.927 40.392C455.244 40.392 454.391 40.989 453.367 42.184C452.428 43.379 451.447 44.829 450.423 46.536C449.484 48.157 448.546 49.864 447.607 51.656C446.668 53.448 445.9 54.984 445.303 56.264C444.62 57.544 443.724 59.421 442.615 61.896C441.506 64.285 440.311 66.675 439.031 69.064C437.751 71.453 436.428 73.544 435.063 75.336C433.698 77.128 432.418 78.024 431.223 78.024C430.37 78.024 429.772 77.853 429.431 77.512C429.09 77.256 428.876 76.915 428.791 76.488C428.706 75.976 428.663 75.421 428.663 74.824C428.748 74.227 428.791 73.587 428.791 72.904V64.84C428.791 63.816 428.706 62.536 428.535 61C428.45 59.464 428.236 57.971 427.895 56.52C427.639 55.069 427.255 53.832 426.743 52.808C426.316 51.784 425.804 51.272 425.207 51.272C424.268 51.272 423.287 51.827 422.263 52.936C421.324 54.045 420.3 55.496 419.191 57.288C418.082 58.995 416.972 60.957 415.863 63.176C414.839 65.395 413.772 67.656 412.663 69.96C411.639 72.179 410.615 74.312 409.591 76.36C408.652 78.408 407.799 80.157 407.031 81.608C406.69 82.291 406.092 82.931 405.239 83.528C404.471 84.125 403.447 84.424 402.167 84.424C401.228 84.424 400.332 84.04 399.479 83.272C398.626 82.589 398.199 81.651 398.199 80.456C398.199 80.029 398.242 79.645 398.327 79.304C398.924 77.683 399.479 75.635 399.991 73.16C400.588 70.685 401.1 68.083 401.527 65.352C401.954 62.536 402.252 59.763 402.423 57.032C402.679 54.301 402.764 51.827 402.679 49.608C402.594 47.389 402.338 45.597 401.911 44.232C401.484 42.781 400.844 42.056 399.991 42.056C398.626 42.056 397.004 42.781 395.127 44.232C393.25 45.683 391.287 47.475 389.239 49.608C387.276 51.656 385.399 53.875 383.607 56.264C381.815 58.568 380.279 60.616 378.999 62.408ZM493.006 23.624C494.542 23.624 496.035 24.008 497.486 24.776C498.937 25.459 500.217 26.397 501.326 27.592C502.435 28.701 503.289 30.067 503.886 31.688C504.569 33.224 504.91 34.803 504.91 36.424C504.91 38.557 504.483 40.819 503.63 43.208C502.862 45.512 501.795 47.859 500.43 50.248C499.065 52.552 497.443 54.813 495.566 57.032C493.774 59.165 491.854 61.085 489.806 62.792C491.598 64.413 493.646 65.523 495.95 66.12C498.339 66.717 501.027 67.016 504.014 67.016C507.513 67.016 510.926 66.248 514.254 64.712C517.582 63.176 520.185 60.915 522.062 57.928C522.574 57.16 523.129 56.691 523.726 56.52C524.323 56.349 524.793 56.264 525.134 56.264C525.902 56.264 526.713 56.563 527.566 57.16C528.419 57.757 528.846 58.739 528.846 60.104C528.846 61.213 528.462 62.152 527.694 62.92C526.329 64.456 524.878 65.949 523.342 67.4C521.806 68.765 520.057 69.96 518.094 70.984C516.217 72.008 514.126 72.861 511.822 73.544C509.518 74.141 506.915 74.44 504.014 74.44C498.638 74.44 494.073 73.629 490.318 72.008C486.563 70.301 483.534 68.083 481.23 65.352C478.926 62.536 477.262 59.379 476.238 55.88C475.214 52.381 474.702 48.755 474.702 45C474.702 42.099 475.171 39.368 476.11 36.808C477.049 34.163 478.371 31.901 480.078 30.024C481.699 28.061 483.619 26.525 485.838 25.416C488.057 24.221 490.446 23.624 493.006 23.624ZM493.006 31.048C491.214 31.048 489.635 31.475 488.27 32.328C486.905 33.096 485.753 34.163 484.814 35.528C483.961 36.808 483.321 38.301 482.894 40.008C482.467 41.629 482.254 43.293 482.254 45C482.254 47.389 482.51 49.693 483.022 51.912C483.449 54.131 484.217 56.008 485.326 57.544C486.265 56.52 487.417 55.197 488.782 53.576C490.147 51.869 491.47 50.077 492.75 48.2C494.03 46.237 495.097 44.232 495.95 42.184C496.889 40.136 497.358 38.216 497.358 36.424C497.358 35.059 497.059 33.821 496.462 32.712C495.865 31.603 494.713 31.048 493.006 31.048ZM528.124 62.408C527.441 63.347 526.46 63.816 525.18 63.816C523.985 63.816 523.089 63.389 522.492 62.536C521.809 61.597 521.468 60.787 521.468 60.104C521.468 59.251 521.767 58.355 522.364 57.416C523.9 55.197 525.692 52.765 527.74 50.12C529.873 47.389 532.135 44.872 534.524 42.568C536.913 40.264 539.345 38.344 541.82 36.808C544.295 35.272 546.727 34.504 549.116 34.504C551.164 34.504 552.913 35.187 554.364 36.552C555.815 37.832 556.967 39.624 557.82 41.928C558.673 44.147 559.185 46.749 559.356 49.736C559.612 52.723 559.527 55.88 559.1 59.208C560.039 57.672 561.105 55.709 562.3 53.32C563.495 50.845 564.817 48.499 566.268 46.28C567.719 43.976 569.255 42.013 570.876 40.392C572.583 38.771 574.332 37.96 576.124 37.96C577.233 37.96 578.215 38.515 579.068 39.624C579.921 40.648 580.647 41.971 581.244 43.592C581.841 45.128 582.311 46.835 582.652 48.712C583.079 50.504 583.42 52.211 583.676 53.832C583.932 55.368 584.103 56.691 584.188 57.8C584.273 58.909 584.316 59.464 584.316 59.464C585.852 56.733 587.516 53.619 589.308 50.12C591.1 46.536 592.977 43.165 594.94 40.008C596.903 36.851 598.951 34.205 601.084 32.072C603.217 29.853 605.393 28.744 607.612 28.744C608.124 28.744 608.721 28.915 609.404 29.256C610.172 29.512 610.769 30.237 611.196 31.432C611.708 32.883 612.22 34.803 612.732 37.192C613.329 39.496 613.927 41.971 614.524 44.616C615.121 47.261 615.719 49.907 616.316 52.552C616.913 55.197 617.511 57.587 618.108 59.72C618.705 61.853 619.303 63.603 619.9 64.968C620.497 66.333 621.095 67.016 621.692 67.016C622.801 67.016 624.124 66.12 625.66 64.328C627.196 62.451 628.817 60.275 630.524 57.8C631.292 56.776 632.316 56.264 633.596 56.264C634.705 56.264 635.559 56.648 636.156 57.416C636.839 58.184 637.18 59.037 637.18 59.976C637.18 60.915 636.924 61.811 636.412 62.664C634.023 66.248 631.591 69.192 629.116 71.496C626.727 73.715 623.911 74.824 620.668 74.824C618.62 74.824 616.871 73.971 615.42 72.264C614.055 70.557 612.903 68.424 611.964 65.864C611.025 63.304 610.215 60.573 609.532 57.672C608.935 54.685 608.38 51.912 607.868 49.352C607.356 46.792 606.887 44.659 606.46 42.952C606.033 41.245 605.564 40.392 605.052 40.392C604.369 40.392 603.516 40.989 602.492 42.184C601.553 43.379 600.572 44.829 599.548 46.536C598.609 48.157 597.671 49.864 596.732 51.656C595.793 53.448 595.025 54.984 594.428 56.264C593.745 57.544 592.849 59.421 591.74 61.896C590.631 64.285 589.436 66.675 588.156 69.064C586.876 71.453 585.553 73.544 584.188 75.336C582.823 77.128 581.543 78.024 580.348 78.024C579.495 78.024 578.897 77.853 578.556 77.512C578.215 77.256 578.001 76.915 577.916 76.488C577.831 75.976 577.788 75.421 577.788 74.824C577.873 74.227 577.916 73.587 577.916 72.904V64.84C577.916 63.816 577.831 62.536 577.66 61C577.575 59.464 577.361 57.971 577.02 56.52C576.764 55.069 576.38 53.832 575.868 52.808C575.441 51.784 574.929 51.272 574.332 51.272C573.393 51.272 572.412 51.827 571.388 52.936C570.449 54.045 569.425 55.496 568.316 57.288C567.207 58.995 566.097 60.957 564.988 63.176C563.964 65.395 562.897 67.656 561.788 69.96C560.764 72.179 559.74 74.312 558.716 76.36C557.777 78.408 556.924 80.157 556.156 81.608C555.815 82.291 555.217 82.931 554.364 83.528C553.596 84.125 552.572 84.424 551.292 84.424C550.353 84.424 549.457 84.04 548.604 83.272C547.751 82.589 547.324 81.651 547.324 80.456C547.324 80.029 547.367 79.645 547.452 79.304C548.049 77.683 548.604 75.635 549.116 73.16C549.713 70.685 550.225 68.083 550.652 65.352C551.079 62.536 551.377 59.763 551.548 57.032C551.804 54.301 551.889 51.827 551.804 49.608C551.719 47.389 551.463 45.597 551.036 44.232C550.609 42.781 549.969 42.056 549.116 42.056C547.751 42.056 546.129 42.781 544.252 44.232C542.375 45.683 540.412 47.475 538.364 49.608C536.401 51.656 534.524 53.875 532.732 56.264C530.94 58.568 529.404 60.616 528.124 62.408ZM630.227 59.72C630.227 56.819 630.782 54.045 631.891 51.4C633 48.755 634.408 46.408 636.115 44.36C637.907 42.312 639.87 40.691 642.003 39.496C644.222 38.301 646.44 37.704 648.659 37.704C649.256 37.704 650.195 37.789 651.475 37.96C652.84 38.045 654.206 38.259 655.571 38.6C657.022 38.941 658.302 39.453 659.411 40.136C660.606 40.733 661.288 41.587 661.459 42.696C662.995 43.379 664.403 44.232 665.683 45.256C667.048 46.195 668.2 47.389 669.139 48.84C670.163 50.291 670.931 51.997 671.443 53.96C671.955 55.837 672.211 58.099 672.211 60.744C673.235 61 674.174 61.171 675.027 61.256C675.88 61.341 676.734 61.384 677.587 61.384C679.806 61.384 681.64 61.085 683.091 60.488C684.542 59.805 685.95 58.781 687.315 57.416C687.656 57.075 688.083 56.819 688.595 56.648C689.192 56.392 689.662 56.264 690.003 56.264C691.198 56.264 692.094 56.691 692.691 57.544C693.374 58.312 693.715 59.165 693.715 60.104C693.715 60.531 693.587 60.957 693.331 61.384C693.16 61.811 692.99 62.195 692.819 62.536C692.136 63.987 691.155 65.139 689.875 65.992C688.595 66.76 687.23 67.357 685.779 67.784C684.328 68.211 682.835 68.509 681.299 68.68C679.763 68.765 678.355 68.808 677.075 68.808C675.795 68.808 674.558 68.723 673.363 68.552C672.254 68.381 671.443 68.168 670.931 67.912C669.992 72.52 667.902 76.061 664.659 78.536C661.502 81.096 657.235 82.376 651.859 82.376C648.019 82.376 644.691 81.651 641.875 80.2C639.144 78.835 636.926 77.043 635.219 74.824C633.512 72.605 632.275 70.173 631.507 67.528C630.654 64.797 630.227 62.195 630.227 59.72ZM643.539 51.4C643.539 47.56 645.715 45.512 650.067 45.256C648.19 44.829 646.483 45.043 644.947 45.896C643.496 46.749 642.216 47.944 641.107 49.48C640.083 51.016 639.272 52.723 638.675 54.6C638.078 56.477 637.779 58.227 637.779 59.848C637.779 62.152 638.206 64.243 639.059 66.12C639.912 67.912 641.022 69.491 642.387 70.856C643.752 72.136 645.246 73.117 646.867 73.8C648.574 74.483 650.238 74.824 651.859 74.824C654.931 74.824 657.534 74.099 659.667 72.648C661.886 71.112 662.995 69.021 662.995 66.376C661.459 66.035 659.582 65.523 657.363 64.84C655.144 64.072 653.011 63.091 650.963 61.896C648.915 60.701 647.166 59.251 645.715 57.544C644.264 55.837 643.539 53.789 643.539 51.4ZM656.723 46.024C656.296 46.024 655.742 46.067 655.059 46.152C654.462 46.237 653.864 46.451 653.267 46.792C652.67 47.048 652.158 47.475 651.731 48.072C651.304 48.584 651.091 49.309 651.091 50.248C651.091 51.443 651.518 52.509 652.371 53.448C653.224 54.301 654.291 55.112 655.571 55.88C656.936 56.563 658.43 57.203 660.051 57.8C661.672 58.312 663.294 58.781 664.915 59.208C664.659 56.307 663.72 53.619 662.099 51.144C660.478 48.669 658.686 46.963 656.723 46.024ZM695.815 43.848C696.071 45.213 696.327 46.451 696.583 47.56C696.924 48.669 697.095 50.205 697.095 52.168C697.095 52.936 696.924 54.003 696.583 55.368C696.327 56.648 695.9 57.928 695.303 59.208C694.706 60.488 693.938 61.597 692.999 62.536C692.146 63.389 691.164 63.816 690.055 63.816C689.116 63.816 688.263 63.517 687.495 62.92C686.727 62.237 686.343 61.299 686.343 60.104C686.343 59.421 686.514 58.781 686.855 58.184C688.476 55.539 689.287 52.765 689.287 49.864C689.287 48.413 689.116 46.92 688.775 45.384C688.434 43.763 687.922 41.971 687.239 40.008C686.983 39.24 686.642 38.557 686.215 37.96C685.703 37.363 685.191 36.808 684.679 36.296C684.167 35.784 683.74 35.315 683.399 34.888C683.058 34.376 682.887 33.907 682.887 33.48C682.887 32.797 683.356 31.987 684.295 31.048C685.148 30.024 686.087 29.512 687.111 29.512C687.708 29.512 688.22 29.64 688.647 29.896C690.098 30.92 691.335 31.944 692.359 32.968C693.468 33.907 694.492 34.76 695.431 35.528C696.455 36.296 697.479 36.893 698.503 37.32C699.527 37.661 700.764 37.747 702.215 37.576C703.666 37.32 705.202 37.149 706.823 37.064C708.53 36.893 710.023 36.808 711.303 36.808C712.327 36.808 713.351 37.235 714.375 38.088C715.399 38.856 715.911 39.709 715.911 40.648C715.911 41.501 715.655 42.44 715.143 43.464C714.716 44.403 714.29 45.256 713.863 46.024C712.668 48.243 711.815 50.504 711.303 52.808C710.791 55.027 710.535 57.245 710.535 59.464C710.535 61.512 710.748 63.517 711.175 65.48C711.687 67.443 712.412 69.235 713.351 70.856C714.29 72.392 715.484 73.672 716.935 74.696C718.471 75.635 720.22 76.104 722.183 76.104C724.658 76.104 726.919 75.635 728.967 74.696C731.015 73.757 732.978 72.477 734.855 70.856C736.732 69.235 738.524 67.315 740.231 65.096C742.023 62.877 743.815 60.488 745.607 57.928C746.46 56.819 747.442 56.264 748.551 56.264C749.746 56.264 750.684 56.648 751.367 57.416C752.05 58.184 752.391 59.123 752.391 60.232C752.391 60.573 752.348 60.915 752.263 61.256C752.263 61.597 752.135 61.939 751.879 62.28C749.319 66.12 746.887 69.405 744.583 72.136C742.364 74.781 740.06 76.957 737.671 78.664C735.367 80.371 732.935 81.608 730.375 82.376C727.9 83.144 725.212 83.528 722.311 83.528C719.239 83.528 716.508 82.845 714.119 81.48C711.815 80.2 709.81 78.493 708.103 76.36C706.482 74.141 705.244 71.624 704.391 68.808C703.538 65.992 703.111 63.133 703.111 60.232C703.111 57.587 703.324 54.813 703.751 51.912C704.178 49.011 704.818 46.536 705.671 44.488C705.159 44.659 704.519 44.787 703.751 44.872C702.983 44.957 702.3 45 701.703 45C700.508 45 699.442 44.957 698.503 44.872C697.564 44.701 696.668 44.36 695.815 43.848ZM813.064 57.928C813.32 57.587 813.704 57.245 814.216 56.904C814.813 56.477 815.453 56.264 816.136 56.264C817.075 56.264 817.928 56.563 818.696 57.16C819.549 57.757 819.976 58.525 819.976 59.464C819.976 61 818.867 63.133 816.648 65.864C814.429 68.509 811.784 71.368 808.712 74.44C805.64 77.427 802.525 80.328 799.368 83.144C796.211 85.96 793.693 88.264 791.816 90.056C791.816 91.421 791.816 92.616 791.816 93.64C791.901 94.664 791.944 95.688 791.944 96.712C792.029 97.736 792.072 98.76 792.072 99.784C792.157 100.893 792.2 102.173 792.2 103.624C792.2 107.379 792.072 111.731 791.816 116.68C791.645 121.629 791.176 126.707 790.408 131.912C789.725 137.117 788.616 142.195 787.08 147.144C785.544 152.179 783.453 156.659 780.808 160.584C778.248 164.595 775.005 167.795 771.08 170.184C767.155 172.659 762.419 173.896 756.872 173.896C754.227 173.896 751.667 173.469 749.192 172.616C746.803 171.763 744.669 170.525 742.792 168.904C740.915 167.283 739.421 165.235 738.312 162.76C737.203 160.371 736.648 157.64 736.648 154.568C736.648 150.131 737.373 145.779 738.824 141.512C740.275 137.245 742.195 133.064 744.584 128.968C746.973 124.872 749.747 120.861 752.904 116.936C756.147 113.096 759.475 109.384 762.888 105.8C766.387 102.216 769.885 98.803 773.384 95.56C776.968 92.317 780.339 89.288 783.496 86.472C783.325 84.168 783.155 82.12 782.984 80.328C782.813 78.621 782.6 76.531 782.344 74.056C782.173 76.275 781.491 78.323 780.296 80.2C779.187 82.163 777.779 83.869 776.072 85.32C774.365 86.771 772.403 87.88 770.184 88.648C767.965 89.501 765.704 89.928 763.4 89.928C760.243 89.928 757.427 89.288 754.952 88.008C752.477 86.813 750.387 85.192 748.68 83.144C746.888 81.181 745.523 78.963 744.584 76.488C743.645 74.013 743.176 71.539 743.176 69.064C743.176 66.931 743.432 64.925 743.944 63.048C744.371 61.085 744.968 59.421 745.736 58.056C746.419 56.691 747.272 55.923 748.296 55.752C749.235 55.496 749.875 55.368 750.216 55.368C751.837 55.368 752.776 55.837 753.032 56.776C753.373 57.715 753.544 58.824 753.544 60.104C753.544 61.811 753.331 63.517 752.904 65.224C752.563 66.931 752.392 68.552 752.392 70.088C752.392 71.624 752.605 73.16 753.032 74.696C753.544 76.147 754.269 77.427 755.208 78.536C756.232 79.731 757.469 80.669 758.92 81.352C760.371 82.035 762.077 82.376 764.04 82.376C767.112 82.376 769.672 81.309 771.72 79.176C773.768 77.043 775.389 74.397 776.584 71.24C777.864 67.997 778.76 64.541 779.272 60.872C779.784 57.117 780.04 53.704 780.04 50.632C780.04 49.693 780.381 48.968 781.064 48.456C781.832 47.944 782.643 47.688 783.496 47.688C784.435 47.688 785.203 47.859 785.8 48.2C786.483 48.541 786.952 49.267 787.208 50.376C787.549 52.339 787.891 54.728 788.232 57.544C788.659 60.36 789 63.261 789.256 66.248C789.597 69.149 789.896 71.923 790.152 74.568C790.493 77.128 790.792 79.091 791.048 80.456C795.229 77.299 798.984 73.928 802.312 70.344C805.725 66.76 809.309 62.621 813.064 57.928ZM756.872 166.344C761.651 166.344 765.661 165.021 768.904 162.376C772.147 159.816 774.792 156.403 776.84 152.136C778.888 147.955 780.424 143.219 781.448 137.928C782.557 132.723 783.325 127.475 783.752 122.184C784.264 116.979 784.52 111.987 784.52 107.208C784.605 102.515 784.648 98.547 784.648 95.304C780.381 99.144 775.859 103.368 771.08 107.976C766.387 112.584 762.035 117.448 758.024 122.568C754.099 127.688 750.813 132.936 748.168 138.312C745.523 143.773 744.2 149.192 744.2 154.568C744.2 157.981 745.437 160.797 747.912 163.016C750.301 165.235 753.288 166.344 756.872 166.344Z" fill="black"/>
</svg>
